<?xml version="1.0" standalone="yes"?>
<!DOCTYPE svg PUBLIC "-//W3C//DTD SVG 1.1//EN"
 "http://www.w3.org/Graphics/SVG/1.1/DTD/svg11.dtd">
<svg xmlns="http://www.w3.org/2000/svg" version="1.1"
  width="100%" height="100%" viewBox="0 0 1024 768"
  style="fill: none; stroke-width: 3; font-family: Helvetica;
 font: Helvetica;
">

<!-- Creator: NGspice -->

<rect x="0" y="0" width="1024" height="768" fill="black" stroke="none"/>
<text stroke="none" fill="white" font-size="16" x="358" y="752">
v-sweep
</text>
<text stroke="none" fill="white" font-size="16" x="10" y="16">
dc1: ** sch_path: /media/sf_sharedlnx/asap_7nm_xschem/inverter_finfet.sch
</text>
<path stroke="white" stroke-width="3" d="M70 720l0 -672"/>
<text stroke="none" fill="white" font-size="16" x="55" y="728">
0.0
</text>
<path stroke="white" stroke-width="3" stroke-dasharray="1,2" d="M196 720l0 -672"/>
<text stroke="none" fill="white" font-size="16" x="171" y="728">
100.0
</text>
<path stroke="white" stroke-width="3" stroke-dasharray="1,2" d="M322 720l0 -672"/>
<text stroke="none" fill="white" font-size="16" x="297" y="728">
200.0
</text>
<path stroke="white" stroke-width="3" stroke-dasharray="1,2" d="M448 720l0 -672"/>
<text stroke="none" fill="white" font-size="16" x="423" y="728">
300.0
</text>
<path stroke="white" stroke-width="3" stroke-dasharray="1,2" d="M574 720l0 -672"/>
<text stroke="none" fill="white" font-size="16" x="549" y="728">
400.0
</text>
<path stroke="white" stroke-width="3" stroke-dasharray="1,2" d="M700 720l0 -672"/>
<text stroke="none" fill="white" font-size="16" x="675" y="728">
500.0
</text>
<path stroke="white" stroke-width="3" stroke-dasharray="1,2" d="M826 720l0 -672"/>
<text stroke="none" fill="white" font-size="16" x="801" y="728">
600.0
</text>
<path stroke="white" stroke-width="3" stroke-dasharray="1,2" d="M952 720l0 -672"/>
<text stroke="none" fill="white" font-size="16" x="927" y="728">
700.0
</text>
<text stroke="none" fill="white" font-size="16" x="614" y="752">
mV
</text>
<path stroke="white" stroke-width="3" d="M70 720l882 0"/>
<text stroke="none" fill="white" font-size="16" x="38" y="728">
0.0
</text>
<path stroke="white" stroke-width="3" stroke-dasharray="1,2" d="M70 624l882 0"/>
<text stroke="none" fill="white" font-size="16" x="18" y="632">
100.0
</text>
<path stroke="white" stroke-width="3" stroke-dasharray="1,2" d="M70 528l882 0"/>
<text stroke="none" fill="white" font-size="16" x="18" y="536">
200.0
</text>
<path stroke="white" stroke-width="3" stroke-dasharray="1,2" d="M70 432l882 0"/>
<text stroke="none" fill="white" font-size="16" x="18" y="440">
300.0
</text>
<path stroke="white" stroke-width="3" stroke-dasharray="1,2" d="M70 336l882 0"/>
<text stroke="none" fill="white" font-size="16" x="18" y="344">
400.0
</text>
<path stroke="white" stroke-width="3" stroke-dasharray="1,2" d="M70 240l882 0"/>
<text stroke="none" fill="white" font-size="16" x="18" y="248">
500.0
</text>
<path stroke="white" stroke-width="3" stroke-dasharray="1,2" d="M70 144l882 0"/>
<text stroke="none" fill="white" font-size="16" x="18" y="152">
600.0
</text>
<path stroke="white" stroke-width="3" stroke-dasharray="1,2" d="M70 48l882 0"/>
<text stroke="none" fill="white" font-size="16" x="18" y="56">
700.0
</text>
<text stroke="none" fill="white" font-size="16" x="10" y="32">
mV
</text>
<path stroke="red" d="M441 23l44 0"/>
<text stroke="none" fill="white" font-size="16" x="495" y="32">
nfet_out
</text>
<path stroke="red" d="M70 48l16 0 2 1 48 0 1 1 22 0 2 1 15 0 1 1 10 0 1 1 9 0 2 1 7 0 1 1 7 0 1 1 5 0 1 1 5 0 2 1 5 0 1 1 4 0 1 1 4 0 1 1 2 0 2 1 3 0 2 1 2 0 1 1 3 0 1 1 3 0 1 1 3 0 1 1 2 0 2 1 2 0 1 1 2 0 1 1 2 0 2 1 1 0 1 1 1 0 2 1 2 0 2 1"/>
<path stroke="red" d="M291 74l1 0 1 1 1 0 2 1 1 0 1 1 1 0 2 1 1 0 1 1 1 0 2 1 1 0 1 1 1 0 2 1 1 0 1 1 1 0 2 1 1 0 2 2 2 0 1 1 1 0 2 1 1 0 2 2 2 0 2 2 1 0 2 1 1 1 1 0 1 1 2 1 1 0 2 2 2 0 2 2 1 0 2 1 2 2 2 0 3 3 2 1 1 0 2 2 2 1 1 1 1 0 1 1 2 1"/>
<path stroke="red" d="M369 113l3 3 2 1 2 2 1 0 2 1 3 3 2 1 2 2 2 1 2 2 1 2 2 1 3 3 2 1 2 2 1 2 2 1 2 2 1 2 2 1 2 2 1 2 2 1 1 2 1 1 2 1 1 2 1 1 1 2 2 1 2 4 3 3 1 2 1 1 1 2 2 2 1 2 1 1 1 2 2 2 3 6 2 2 1 3 2 4 2 2 1 3 1 2 2 3 1 2 1 3 1 2 2 3 2 6"/>
<path stroke="red" d="M458 223l1 2 2 3 1 4 2 6 2 3 1 4 1 3 1 4 2 3 3 12 2 4 2 8 2 5 1 4 1 5 1 4 2 5 3 15 2 5 1 5 1 6 1 5 2 6 1 5 2 12 2 5 3 18 2 6 1 6 1 7 1 6 2 6 2 12 2 6 1 6 1 7 1 6 2 6 2 12 1 5 2 6 1 6 1 5 1 6 2 5 3 15 2 5 1 4 1 5 1 4 2 4"/>
<path stroke="red" d="M539 540l2 8 2 3 1 4 2 6 2 4 1 3 1 2 1 3 2 3 1 3 1 2 1 3 2 2 2 4 1 3 2 2 3 6 2 1 3 6 2 1 2 4 2 1 1 2 1 1 1 2 2 1 1 2 6 6 1 2 2 1 3 3 2 1 1 2 2 2 2 1 2 2 2 1 3 3 2 1 3 3 2 0 3 3 2 1 2 2 1 0 2 1 2 2 1 0 2 1 2 2 1 0 2 1 2 2"/>
<path stroke="red" d="M638 665l2 0 2 2 1 0 2 1 1 1 1 0 1 1 2 1 1 0 1 1 1 0 2 1 1 1 1 0 1 1 2 0 1 1 1 0 1 1 2 1 1 0 1 1 2 0 1 1 1 0 1 1 2 0 1 1 1 0 1 1 2 0 1 1 1 0 1 1 2 0 1 1 1 0 1 1 3 0 1 1 1 0 2 1 1 0 1 1 3 0 1 1 1 0 2 1 2 0 1 1 2 0 1 1 2 0"/>
<path stroke="red" d="M711 694l2 1 2 0 1 1 2 0 1 1 2 0 2 1 2 0 1 1 3 0 1 1 4 0 1 1 3 0 1 1 3 0 1 1 4 0 1 1 4 0 1 1 2 0 2 1 5 0 1 1 4 0 1 1 4 0 1 1 5 0 1 1 5 0 2 1 6 0 1 1 7 0 1 1 7 0 2 1 7 0 1 1 11 0 1 1 11 0 1 1 17 0 1 1 21 0 2 1 45 0 1 1 23 0"/>
<path stroke="blue" d="M70 23l44 0"/>
<text stroke="none" fill="white" font-size="16" x="124" y="32">
nfet_in
</text>
<path stroke="blue" d="M70 720l1 -1 2 -1 3 -3 2 -1 3 -3 2 -1 2 -2 1 0 2 -1 3 -3 2 -1 3 -3 2 -1 2 -2 2 -1 3 -3 2 -1 3 -3 2 -1 3 -3 2 -1 1 0 2 -2 2 -1 3 -3 2 -1 3 -3 2 -1 2 -2 2 -1 3 -3 2 -1 3 -3 2 -1 2 -2 1 0 2 -1 3 -3 2 -1 3 -3 2 -1 2 -2 2 -1"/>
<path stroke="blue" d="M165 648l3 -3 2 -1 3 -3 2 -1 3 -3 2 -1 1 0 2 -2 2 -1 3 -3 2 -1 3 -3 2 -1 2 -2 2 -1 3 -3 2 -1 3 -3 2 -1 2 -2 1 0 2 -1 3 -3 2 -1 3 -3 2 -1 2 -2 2 -1 3 -3 2 -1 3 -3 2 -1 3 -3 2 -1 1 0 2 -2 2 -1 3 -3 2 -1 3 -3 2 -1 2 -2 2 -1"/>
<path stroke="blue" d="M262 574l3 -3 2 -1 3 -3 2 -1 2 -2 1 0 2 -1 3 -3 2 -1 3 -3 2 -1 2 -2 2 -1 3 -3 2 -1 3 -3 2 -1 3 -3 2 -1 1 0 2 -2 2 -1 3 -3 2 -1 3 -3 2 -1 2 -2 2 -1 3 -3 2 -1 3 -3 2 -1 2 -2 1 0 2 -1 3 -3 2 -1 3 -3 2 -1 2 -2 2 -1 3 -3 2 -1"/>
<path stroke="blue" d="M359 500l3 -3 2 -1 3 -3 2 -1 1 0 2 -2 2 -1 3 -3 2 -1 3 -3 2 -1 2 -2 2 -1 3 -3 2 -1 3 -3 2 -1 2 -2 1 0 2 -1 3 -3 2 -1 3 -3 2 -1 2 -2 2 -1 3 -3 2 -1 3 -3 2 -1 3 -3 2 -1 1 0 2 -2 2 -1 3 -3 2 -1 3 -3 2 -1 2 -2 2 -1 3 -3 2 -1"/>
<path stroke="blue" d="M456 426l3 -3 2 -1 2 -2 1 0 2 -1 3 -3 2 -1 3 -3 2 -1 2 -2 2 -1 3 -3 2 -1 3 -3 2 -1 3 -3 2 -1 1 0 2 -2 2 -1 3 -3 2 -1 3 -3 2 -1 2 -2 2 -1 3 -3 2 -1 3 -3 2 -1 2 -2 1 0 2 -1 3 -3 2 -1 3 -3 2 -1 2 -2 2 -1 3 -3 2 -1 3 -3 2 -1"/>
<path stroke="blue" d="M553 352l3 -3 2 -1 1 0 2 -2 2 -1 3 -3 2 -1 3 -3 2 -1 2 -2 2 -1 3 -3 2 -1 3 -3 2 -1 2 -2 1 0 2 -1 3 -3 2 -1 3 -3 2 -1 2 -2 2 -1 3 -3 2 -1 3 -3 2 -1 3 -3 2 -1 1 0 2 -2 2 -1 3 -3 2 -1 3 -3 2 -1 2 -2 2 -1 3 -3 2 -1 3 -3 2 -1"/>
<path stroke="blue" d="M650 278l2 -2 1 0 2 -1 3 -3 2 -1 3 -3 2 -1 2 -2 2 -1 3 -3 2 -1 3 -3 2 -1 3 -3 2 -1 1 0 2 -2 2 -1 3 -3 2 -1 3 -3 2 -1 2 -2 2 -1 3 -3 2 -1 3 -3 2 -1 2 -2 1 0 2 -1 3 -3 2 -1 3 -3 2 -1 2 -2 2 -1 3 -3 2 -1 3 -3 2 -1 3 -3 2 -1"/>
<path stroke="blue" d="M747 204l1 0 2 -2 2 -1 3 -3 2 -1 3 -3 2 -1 2 -2 2 -1 3 -3 2 -1 3 -3 2 -1 2 -2 1 0 2 -1 3 -3 2 -1 3 -3 2 -1 2 -2 2 -1 3 -3 2 -1 3 -3 2 -1 3 -3 2 -1 1 0 2 -2 2 -1 3 -3 2 -1 3 -3 2 -1 2 -2 2 -1 3 -3 2 -1 3 -3 2 -1 2 -2 1 0"/>
<path stroke="blue" d="M842 132l2 -1 3 -3 2 -1 3 -3 2 -1 2 -2 2 -1 3 -3 2 -1 3 -3 2 -1 3 -3 2 -1 1 0 2 -2 2 -1 3 -3 2 -1 3 -3 2 -1 2 -2 2 -1 3 -3 2 -1 3 -3 2 -1 2 -2 1 0 2 -1 3 -3 2 -1 3 -3 2 -1 2 -2 2 -1 3 -3 2 -1 3 -3 2 -1 3 -3 2 -1 1 0 2 -2"/>
<path stroke="blue" d="M939 58l2 -1 3 -3 2 -1 3 -3 2 -1 1 -1"/>
</svg>
