<?xml version="1.0" standalone="yes"?>
<!DOCTYPE svg PUBLIC "-//W3C//DTD SVG 1.1//EN"
 "http://www.w3.org/Graphics/SVG/1.1/DTD/svg11.dtd">
<svg xmlns="http://www.w3.org/2000/svg" version="1.1"
  width="100%" height="100%" viewBox="0 0 1024 768"
  style="fill: none; stroke-width: 3; font-family: Helvetica;
 font: Helvetica;
">

<!-- Creator: NGspice -->

<rect x="0" y="0" width="1024" height="768" fill="black" stroke="none"/>
<text stroke="none" fill="white" font-size="16" x="358" y="752">
v-sweep
</text>
<text stroke="none" fill="white" font-size="16" x="10" y="16">
dc1: ** sch_path: /media/sf_sharedlnx/asap_7nm_xschem/inverter_finfet.sch
</text>
<path stroke="white" stroke-width="3" d="M50 720l0 -663"/>
<text stroke="none" fill="white" font-size="16" x="35" y="728">
0.0
</text>
<path stroke="white" stroke-width="3" stroke-dasharray="1,2" d="M182 720l0 -663"/>
<text stroke="none" fill="white" font-size="16" x="157" y="728">
100.0
</text>
<path stroke="white" stroke-width="3" stroke-dasharray="1,2" d="M314 720l0 -663"/>
<text stroke="none" fill="white" font-size="16" x="289" y="728">
200.0
</text>
<path stroke="white" stroke-width="3" stroke-dasharray="1,2" d="M446 720l0 -663"/>
<text stroke="none" fill="white" font-size="16" x="421" y="728">
300.0
</text>
<path stroke="white" stroke-width="3" stroke-dasharray="1,2" d="M578 720l0 -663"/>
<text stroke="none" fill="white" font-size="16" x="553" y="728">
400.0
</text>
<path stroke="white" stroke-width="3" stroke-dasharray="1,2" d="M710 720l0 -663"/>
<text stroke="none" fill="white" font-size="16" x="685" y="728">
500.0
</text>
<path stroke="white" stroke-width="3" stroke-dasharray="1,2" d="M842 720l0 -663"/>
<text stroke="none" fill="white" font-size="16" x="817" y="728">
600.0
</text>
<path stroke="white" stroke-width="3" stroke-dasharray="1,2" d="M974 720l0 -663"/>
<text stroke="none" fill="white" font-size="16" x="949" y="728">
700.0
</text>
<text stroke="none" fill="white" font-size="16" x="614" y="752">
mV
</text>
<path stroke="white" stroke-width="3" d="M50 720l924 0"/>
<text stroke="none" fill="white" font-size="16" x="18" y="728">
0.0
</text>
<path stroke="white" stroke-width="3" stroke-dasharray="1,2" d="M50 669l924 0"/>
<text stroke="none" fill="white" font-size="16" x="18" y="677">
0.5
</text>
<path stroke="white" stroke-width="3" stroke-dasharray="1,2" d="M50 618l924 0"/>
<text stroke="none" fill="white" font-size="16" x="18" y="626">
1.0
</text>
<path stroke="white" stroke-width="3" stroke-dasharray="1,2" d="M50 567l924 0"/>
<text stroke="none" fill="white" font-size="16" x="18" y="575">
1.5
</text>
<path stroke="white" stroke-width="3" stroke-dasharray="1,2" d="M50 516l924 0"/>
<text stroke="none" fill="white" font-size="16" x="18" y="524">
2.0
</text>
<path stroke="white" stroke-width="3" stroke-dasharray="1,2" d="M50 465l924 0"/>
<text stroke="none" fill="white" font-size="16" x="18" y="473">
2.5
</text>
<path stroke="white" stroke-width="3" stroke-dasharray="1,2" d="M50 414l924 0"/>
<text stroke="none" fill="white" font-size="16" x="18" y="422">
3.0
</text>
<path stroke="white" stroke-width="3" stroke-dasharray="1,2" d="M50 363l924 0"/>
<text stroke="none" fill="white" font-size="16" x="18" y="371">
3.5
</text>
<path stroke="white" stroke-width="3" stroke-dasharray="1,2" d="M50 312l924 0"/>
<text stroke="none" fill="white" font-size="16" x="18" y="320">
4.0
</text>
<path stroke="white" stroke-width="3" stroke-dasharray="1,2" d="M50 261l924 0"/>
<text stroke="none" fill="white" font-size="16" x="18" y="269">
4.5
</text>
<path stroke="white" stroke-width="3" stroke-dasharray="1,2" d="M50 210l924 0"/>
<text stroke="none" fill="white" font-size="16" x="18" y="218">
5.0
</text>
<path stroke="white" stroke-width="3" stroke-dasharray="1,2" d="M50 159l924 0"/>
<text stroke="none" fill="white" font-size="16" x="18" y="167">
5.5
</text>
<path stroke="white" stroke-width="3" stroke-dasharray="1,2" d="M50 108l924 0"/>
<text stroke="none" fill="white" font-size="16" x="18" y="116">
6.0
</text>
<path stroke="white" stroke-width="3" stroke-dasharray="1,2" d="M50 57l924 0"/>
<text stroke="none" fill="white" font-size="16" x="18" y="65">
6.5
</text>
<text stroke="none" fill="white" font-size="16" x="10" y="32">
V
</text>
<path stroke="red" d="M462 23l46 0"/>
<text stroke="none" fill="white" font-size="16" x="518" y="32">
gain_av
</text>
<path stroke="red" d="M50 719l17 0 1 -1 23 0 1 -1 16 0 1 -1 11 0 1 -1 10 0 1 -1 6 0 2 -1 6 0 2 -1 5 0 1 -1 6 0 1 -1 4 0 1 -1 4 0 1 -1 3 0 1 -1 4 0 2 -1 2 0 2 -1 2 0 2 -1 2 0 2 -1 2 0 2 -1 2 0 1 -1 3 0 1 -1 2 0 1 -1 3 0 1 -1 1 0 2 -1 2 0 2 -1"/>
<path stroke="red" d="M218 696l1 0 1 -1 3 0 1 -1 2 0 1 -1 1 0 2 -1 1 0 1 -1 1 0 2 -1 2 0 2 -1 1 0 1 -1 2 0 1 -1 1 0 2 -1 1 0 1 -1 2 0 1 -1 1 0 2 -1 1 0 1 -1 2 0 1 -1 1 0 2 -1 1 0 1 -1 1 0 2 -1 1 -1 1 0 2 -1 1 0 1 -1 2 0 1 -1 1 0 2 -1 1 0 1 -1"/>
<path stroke="red" d="M282 672l2 -1 1 0 1 -1 2 0 1 -1 1 0 2 -1 1 -1 1 0 2 -1 1 0 1 -1 1 0 2 -1 1 -1 1 0 2 -1 1 -1 1 0 2 -1 1 0 1 -1 2 -1 1 0 1 -1 2 -1 1 0 1 -1 2 -1 1 0 1 -1 2 -1 1 0 1 -1 2 -1 1 -1 1 0 1 -1 2 -1 1 0 1 -1 2 -1 2 -2 2 0 2 -2 2 -1"/>
<path stroke="red" d="M346 640l2 -2 2 0 2 -2 2 -1 2 -2 2 -1 2 -2 2 -1 3 -3 2 -1 6 -6 2 -1 1 -1 1 -2 2 -1 1 -1 1 -2 2 -1 1 -2 1 -1 2 -1 2 -4 2 -1 1 -2 3 -3 3 -6 2 -2 2 -4 2 -2 2 -4 2 -2 1 -3 1 -2 2 -2 2 -6 2 -2 2 -6 2 -3 2 -6 2 -3 1 -4 1 -3 2 -4"/>
<path stroke="red" d="M428 532l1 -3 2 -8 2 -4 1 -4 1 -5 2 -4 2 -10 2 -5 2 -10 2 -6 1 -5 1 -6 2 -6 1 -7 1 -6 2 -7 2 -14 2 -7 2 -16 2 -8 1 -8 2 -18 2 -9 1 -9 1 -10 2 -10 2 -20 2 -10 2 -22 2 -11 2 -22 2 -11 2 -22 2 -10 2 -22 2 -10 2 -20 2 -9 1 -10"/>
<path stroke="red" d="M495 128l2 -16 2 -8 2 -14 2 -5 1 -6 1 -4 2 -4 1 -3 1 -2 2 -1 1 -1 1 1 2 1 2 6 2 5 2 12 2 8 1 9 1 10 2 11 2 26 1 14 2 14 1 16 1 15 2 17 2 32 2 17 2 32 2 15 1 15 1 14 2 14 2 26 2 12 2 22 2 10 1 10 1 9 2 8 2 16 1 7 2 7 2 12"/>
<path stroke="red" d="M567 507l2 6 1 6 1 5 2 5 1 5 1 4 2 5 2 8 2 4 1 3 1 4 2 3 1 3 1 4 2 3 1 3 1 2 2 3 1 3 1 2 1 3 2 2 1 3 1 2 2 2 2 4 2 2 2 4 3 3 1 2 3 3 1 2 2 1 1 2 14 14 2 1 2 2 2 1 2 2 2 1 2 2 2 1 1 1 1 0 2 1 2 2 2 1 1 1 1 0 2 1 2 2 1 0 2 1"/>
<path stroke="red" d="M664 657l1 1 1 0 2 1 1 1 1 0 2 1 1 1 1 0 2 1 1 1 1 0 2 1 1 0 1 1 2 1 1 0 1 1 2 0 1 1 1 0 2 1 1 0 1 1 1 0 2 1 1 0 1 1 2 0 1 1 1 0 2 1 1 0 1 1 2 0 1 1 3 0 1 1 1 0 2 1 1 0 1 1 3 0 1 1 2 0 1 1 2 0 2 1 1 0 1 1 3 0 1 1 2 0 1 1"/>
<path stroke="red" d="M739 686l3 0 1 1 3 0 1 1 3 0 1 1 3 0 1 1 3 0 1 1 2 0 2 1 2 0 2 1 2 0 2 1 2 0 2 1 2 0 2 1 2 0 2 1 4 0 1 1 3 0 1 1 4 0 1 1 3 0 1 1 4 0 1 1 4 0 2 1 4 0 1 1 4 0 1 1 4 0 1 1 4 0 2 1 5 0 1 1 4 0 2 1 5 0 1 1 6 0 1 1 6 0 2 1 6 0"/>
<path stroke="red" d="M872 712l2 1 6 0 2 1 8 0 1 1 9 0 1 1 12 0 2 1 14 0 1 1 23 0 1 1 20 0"/>
</svg>
