<?xml version="1.0" standalone="yes"?>
<!DOCTYPE svg PUBLIC "-//W3C//DTD SVG 1.1//EN"
 "http://www.w3.org/Graphics/SVG/1.1/DTD/svg11.dtd">
<svg xmlns="http://www.w3.org/2000/svg" version="1.1"
  width="100%" height="100%" viewBox="0 0 1024 768"
  style="fill: none; stroke-width: 3; font-family: Helvetica;
 font: Helvetica;
">

<!-- Creator: NGspice -->

<rect x="0" y="0" width="1024" height="768" fill="black" stroke="none"/>
<text stroke="none" fill="white" font-size="16" x="358" y="752">
v-sweep
</text>
<text stroke="none" fill="white" font-size="16" x="10" y="16">
dc1: ** sch_path: /media/sf_sharedlnx/asap_7nm_xschem/inverter_finfet.sch
</text>
<path stroke="white" stroke-width="3" d="M60 720l0 -672"/>
<text stroke="none" fill="white" font-size="16" x="45" y="728">
0.0
</text>
<path stroke="white" stroke-width="3" stroke-dasharray="1,2" d="M189 720l0 -672"/>
<text stroke="none" fill="white" font-size="16" x="164" y="728">
100.0
</text>
<path stroke="white" stroke-width="3" stroke-dasharray="1,2" d="M318 720l0 -672"/>
<text stroke="none" fill="white" font-size="16" x="293" y="728">
200.0
</text>
<path stroke="white" stroke-width="3" stroke-dasharray="1,2" d="M447 720l0 -672"/>
<text stroke="none" fill="white" font-size="16" x="422" y="728">
300.0
</text>
<path stroke="white" stroke-width="3" stroke-dasharray="1,2" d="M576 720l0 -672"/>
<text stroke="none" fill="white" font-size="16" x="551" y="728">
400.0
</text>
<path stroke="white" stroke-width="3" stroke-dasharray="1,2" d="M705 720l0 -672"/>
<text stroke="none" fill="white" font-size="16" x="680" y="728">
500.0
</text>
<path stroke="white" stroke-width="3" stroke-dasharray="1,2" d="M834 720l0 -672"/>
<text stroke="none" fill="white" font-size="16" x="809" y="728">
600.0
</text>
<path stroke="white" stroke-width="3" stroke-dasharray="1,2" d="M963 720l0 -672"/>
<text stroke="none" fill="white" font-size="16" x="938" y="728">
700.0
</text>
<text stroke="none" fill="white" font-size="16" x="614" y="752">
mV
</text>
<path stroke="white" stroke-width="3" stroke-dasharray="1,2" d="M60 720l903 0"/>
<text stroke="none" fill="white" font-size="16" x="18" y="728">
-5.0
</text>
<path stroke="white" stroke-width="3" d="M60 664l903 0"/>
<text stroke="none" fill="white" font-size="16" x="28" y="672">
0.0
</text>
<path stroke="white" stroke-width="3" stroke-dasharray="1,2" d="M60 608l903 0"/>
<text stroke="none" fill="white" font-size="16" x="28" y="616">
5.0
</text>
<path stroke="white" stroke-width="3" stroke-dasharray="1,2" d="M60 552l903 0"/>
<text stroke="none" fill="white" font-size="16" x="18" y="560">
10.0
</text>
<path stroke="white" stroke-width="3" stroke-dasharray="1,2" d="M60 496l903 0"/>
<text stroke="none" fill="white" font-size="16" x="18" y="504">
15.0
</text>
<path stroke="white" stroke-width="3" stroke-dasharray="1,2" d="M60 440l903 0"/>
<text stroke="none" fill="white" font-size="16" x="18" y="448">
20.0
</text>
<path stroke="white" stroke-width="3" stroke-dasharray="1,2" d="M60 384l903 0"/>
<text stroke="none" fill="white" font-size="16" x="18" y="392">
25.0
</text>
<path stroke="white" stroke-width="3" stroke-dasharray="1,2" d="M60 328l903 0"/>
<text stroke="none" fill="white" font-size="16" x="18" y="336">
30.0
</text>
<path stroke="white" stroke-width="3" stroke-dasharray="1,2" d="M60 272l903 0"/>
<text stroke="none" fill="white" font-size="16" x="18" y="280">
35.0
</text>
<path stroke="white" stroke-width="3" stroke-dasharray="1,2" d="M60 216l903 0"/>
<text stroke="none" fill="white" font-size="16" x="18" y="224">
40.0
</text>
<path stroke="white" stroke-width="3" stroke-dasharray="1,2" d="M60 160l903 0"/>
<text stroke="none" fill="white" font-size="16" x="18" y="168">
45.0
</text>
<path stroke="white" stroke-width="3" stroke-dasharray="1,2" d="M60 104l903 0"/>
<text stroke="none" fill="white" font-size="16" x="18" y="112">
50.0
</text>
<path stroke="white" stroke-width="3" stroke-dasharray="1,2" d="M60 48l903 0"/>
<text stroke="none" fill="white" font-size="16" x="18" y="56">
55.0
</text>
<text stroke="none" fill="white" font-size="16" x="10" y="32">
m     
</text>
<path stroke="red" d="M451 23l45 0"/>
<text stroke="none" fill="white" font-size="16" x="506" y="32">
gm
</text>
<path stroke="red" d="M60 664l12 0 1 -1 53 0 1 -1 26 0 1 -1 17 0 1 -1 14 0 2 -1 13 0 1 -1 10 0 2 -1 10 0 1 -1 10 0 2 -1 9 0 1 -1 10 0 2 -1 9 0 1 -1 12 0 1 -1 10 0 1 -1 13 0 2 -1 14 0 1 -1 17 0 1 -1 21 0 1 -1 39 0 1 -1 16 0 1 1 27 0 1 1 11 0 1 1"/>
<path stroke="red" d="M460 648l6 0 2 1 5 0 1 1 4 0 1 1 4 0 1 1 3 0 1 1 4 0 1 1 3 0 1 1 3 0 1 1 3 0 1 1 1 0 2 1 2 0 2 1 1 0 1 1 1 0 2 1 1 1 1 0 2 1 1 0 2 2 2 1 1 0 1 1 2 1 1 1 1 0 1 1 2 1 1 1 1 0 2 1 1 1 1 0 1 1 2 0 2 2 2 0 1 1 2 0 2 1 2 0 2 1"/>
<path stroke="red" d="M557 680l2 0 2 1 5 0 1 1 8 0 1 1 14 0 1 1 37 0 1 -1 26 0 1 -1 18 0 1 -1 15 0 1 -1 14 0 1 -1 12 0 1 -1 12 0 1 -1 12 0 1 -1 10 0 2 -1 11 0 2 -1 10 0 1 -1 10 0 2 -1 11 0 2 -1 11 0 2 -1 11 0 1 -1 15 0 1 -1 14 0 1 -1 18 0 2 -1"/>
<path stroke="red" d="M882 666l26 0 1 -1 49 0 1 -1 1 8 2 -191 1 -396"/>
</svg>
