<?xml version="1.0" standalone="yes"?>
<!DOCTYPE svg PUBLIC "-//W3C//DTD SVG 1.1//EN"
 "http://www.w3.org/Graphics/SVG/1.1/DTD/svg11.dtd">
<svg xmlns="http://www.w3.org/2000/svg" version="1.1"
  width="100%" height="100%" viewBox="0 0 1024 768"
  style="fill: none; stroke-width: 3; font-family: Helvetica;
 font: Helvetica;
">

<!-- Creator: NGspice -->

<rect x="0" y="0" width="1024" height="768" fill="black" stroke="none"/>
<text stroke="none" fill="white" font-size="16" x="358" y="752">
v-sweep
</text>
<text stroke="none" fill="white" font-size="16" x="10" y="16">
dc4: ** sch_path: /media/sf_sharedlnx/asap_7nm_xschem/bandgap.sch
</text>
<path stroke="white" stroke-width="3" d="M60 720l0 -672"/>
<text stroke="none" fill="white" font-size="16" x="45" y="728">
0.0
</text>
<path stroke="white" stroke-width="3" stroke-dasharray="1,2" d="M150 720l0 -672"/>
<text stroke="none" fill="white" font-size="16" x="135" y="728">
0.2
</text>
<path stroke="white" stroke-width="3" stroke-dasharray="1,2" d="M240 720l0 -672"/>
<text stroke="none" fill="white" font-size="16" x="225" y="728">
0.4
</text>
<path stroke="white" stroke-width="3" stroke-dasharray="1,2" d="M330 720l0 -672"/>
<text stroke="none" fill="white" font-size="16" x="315" y="728">
0.6
</text>
<path stroke="white" stroke-width="3" stroke-dasharray="1,2" d="M420 720l0 -672"/>
<text stroke="none" fill="white" font-size="16" x="405" y="728">
0.8
</text>
<path stroke="white" stroke-width="3" stroke-dasharray="1,2" d="M510 720l0 -672"/>
<text stroke="none" fill="white" font-size="16" x="495" y="728">
1.0
</text>
<path stroke="white" stroke-width="3" stroke-dasharray="1,2" d="M600 720l0 -672"/>
<text stroke="none" fill="white" font-size="16" x="585" y="728">
1.2
</text>
<path stroke="white" stroke-width="3" stroke-dasharray="1,2" d="M690 720l0 -672"/>
<text stroke="none" fill="white" font-size="16" x="675" y="728">
1.4
</text>
<path stroke="white" stroke-width="3" stroke-dasharray="1,2" d="M780 720l0 -672"/>
<text stroke="none" fill="white" font-size="16" x="765" y="728">
1.6
</text>
<path stroke="white" stroke-width="3" stroke-dasharray="1,2" d="M870 720l0 -672"/>
<text stroke="none" fill="white" font-size="16" x="855" y="728">
1.8
</text>
<path stroke="white" stroke-width="3" stroke-dasharray="1,2" d="M960 720l0 -672"/>
<text stroke="none" fill="white" font-size="16" x="945" y="728">
2.0
</text>
<text stroke="none" fill="white" font-size="16" x="614" y="752">
V
</text>
<path stroke="white" stroke-width="3" d="M60 720l900 0"/>
<text stroke="none" fill="white" font-size="16" x="18" y="728">
-0.0
</text>
<path stroke="white" stroke-width="3" stroke-dasharray="1,2" d="M60 636l900 0"/>
<text stroke="none" fill="white" font-size="16" x="18" y="644">
10.0
</text>
<path stroke="white" stroke-width="3" stroke-dasharray="1,2" d="M60 552l900 0"/>
<text stroke="none" fill="white" font-size="16" x="18" y="560">
20.0
</text>
<path stroke="white" stroke-width="3" stroke-dasharray="1,2" d="M60 468l900 0"/>
<text stroke="none" fill="white" font-size="16" x="18" y="476">
30.0
</text>
<path stroke="white" stroke-width="3" stroke-dasharray="1,2" d="M60 384l900 0"/>
<text stroke="none" fill="white" font-size="16" x="18" y="392">
40.0
</text>
<path stroke="white" stroke-width="3" stroke-dasharray="1,2" d="M60 300l900 0"/>
<text stroke="none" fill="white" font-size="16" x="18" y="308">
50.0
</text>
<path stroke="white" stroke-width="3" stroke-dasharray="1,2" d="M60 216l900 0"/>
<text stroke="none" fill="white" font-size="16" x="18" y="224">
60.0
</text>
<path stroke="white" stroke-width="3" stroke-dasharray="1,2" d="M60 132l900 0"/>
<text stroke="none" fill="white" font-size="16" x="18" y="140">
70.0
</text>
<path stroke="white" stroke-width="3" stroke-dasharray="1,2" d="M60 48l900 0"/>
<text stroke="none" fill="white" font-size="16" x="18" y="56">
80.0
</text>
<text stroke="none" fill="white" font-size="16" x="10" y="32">
uA
</text>
<path stroke="red" d="M450 23l45 0"/>
<text stroke="none" fill="white" font-size="16" x="505" y="32">
-i(vdn)
</text>
<path stroke="red" d="M60 720l320 0 4 -1 185 0 4 -1 95 0 4 -1 68 0 4 -1 54 0 5 -1 45 0 4 -1 41 0 4 -1 32 0 4 -1 27 0M60 720l95 0 4 -1 171 0 5 -1 85 0 5 -1 63 0 4 -1 50 0 4 -1 41 0 4 -1 32 0 4 -1 32 0 4 -1 27 0 5 -1 22 0 5 -1 27 0 4 -1 18 0 5 -1"/>
<path stroke="red" d="M776 708l22 0 5 -1 18 0 4 -1 18 0 5 -1 13 0 5 -1 18 0 4 -1 14 0 4 -1 14 0 4 -1 14 0 4 -1 14 0 4 -1M60 720l5 0 4 -1 23 0 4 -1 77 0 4 -1 54 0 5 -1 45 0 4 -1 36 0 5 -1 31 0 5 -1 27 0 4 -1 23 0 4 -1 23 0 4 -1 23 0 4 -1 18 0"/>
<path stroke="red" d="M492 709l5 -1 18 0 4 -1 18 0 5 -1 13 0 5 -1 13 0 5 -1 18 0 4 -1 14 0 4 -1 9 0 5 -1 13 0 5 -1 13 0 5 -1 9 0 4 -1 14 0 4 -1 9 0 5 -1 13 0 5 -1 9 0 4 -1 9 0 5 -1 9 0 4 -1 9 0 5 -1 9 0 4 -1 9 0 5 -1 9 0 4 -1 9 0 5 -1 9 0 4 -1"/>
<path stroke="red" d="M852 686l9 0 5 -1 9 0 4 -1 9 0 5 -1 4 0 5 -1 9 0 4 -1 9 0 5 -1 4 0 5 -1 9 0 4 -1 9 0M60 720l5 -2 4 -1 5 -1 4 -1 5 0 4 -1 9 0 5 -1 22 0 5 -1 18 0 4 -1 23 0 4 -1 18 0 5 -1 13 0 5 -1 18 0 4 -1 14 0 4 -1 14 0 4 -1 14 0 4 -1"/>
<path stroke="red" d="M294 704l14 0 4 -1 14 0 4 -1 9 0 5 -1 13 0 5 -1 9 0 4 -1 9 0 5 -1 13 0 5 -1 9 0 4 -1 9 0 5 -1 9 0 4 -1 9 0 5 -1 9 0 4 -1 9 0 5 -1 9 0 4 -1 5 0 4 -1 9 0 5 -1 9 0 4 -1 9 0 5 -1 4 0 5 -1 9 0 4 -1 5 0 4 -1 9 0 5 -1 4 0 5 -1"/>
<path stroke="red" d="M605 681l9 0 4 -1 9 0 5 -1 4 0 5 -1 4 0 5 -1 9 0 4 -1 5 0 4 -1 9 0 5 -1 4 0 5 -1 4 0 5 -1 9 0 4 -1 5 0 4 -1 5 0 4 -1 9 0 5 -1 4 0 5 -1 4 0 5 -1 9 0 4 -1 5 0 4 -1 5 0 4 -1 5 0 4 -1 5 0 4 -1 9 0 5 -1 4 0 5 -1 4 0 5 -1 4 0"/>
<path stroke="red" d="M852 658l5 -1 4 0 5 -1 9 0 4 -1 5 0 4 -1 5 0 4 -1 5 0 4 -1 5 0 4 -1 5 0 4 -1 5 0 4 -1 5 0 4 -1 5 0 4 -1 9 0M60 720l5 -4 4 -4 5 -3 4 -2 5 -2 4 -2 5 -1 4 -1 5 -1 4 0 5 -1 4 -1 9 0 5 -1 4 0 5 -1 9 0 4 -1 5 0 4 -1 9 0 5 -1 4 0"/>
<path stroke="red" d="M177 693l5 -1 9 0 4 -1 5 0 4 -1 9 0 5 -1 4 0 5 -1 9 0 4 -1 5 0 4 -1 9 0 5 -1 4 0 5 -1 9 0 4 -1 5 0 4 -1 5 0 4 -1 9 0 5 -1 4 0 5 -1 4 0 5 -1 9 0 4 -1 5 0 4 -1 5 0 4 -1 5 0 4 -1 9 0 5 -1 4 0 5 -1 4 0 5 -1 4 0 5 -1 4 0 5 -1"/>
<path stroke="red" d="M425 669l4 0 5 -1 9 0 4 -1 5 0 4 -1 5 0 4 -1 5 0 4 -1 5 0 4 -1 5 0 4 -1 5 0 4 -1 5 0 4 -1 5 0 4 -1 9 0 5 -1 4 0 5 -1 4 0 5 -1 4 0 5 -1 4 0 5 -1 4 0 5 -1 4 0 5 -1 4 0 5 -1 4 0 5 -1 4 0 5 -1 4 0 5 -1 4 0 5 -1 4 0 5 -1 4 0"/>
<path stroke="red" d="M645 646l5 -1 4 0 5 -1 4 0 5 -1 4 0 5 -1 4 0 5 -1 4 0 5 -1 4 -1 5 0 4 -1 5 0 4 -1 5 0 4 -1 5 0 4 -1 5 0 4 -1 5 0 4 -1 5 0 4 -1 5 0 4 -1 5 0 4 -1 5 0 4 -1 5 0 4 -1 5 0 4 -1 5 -1 4 0 5 -1 4 0 5 -1 4 0 5 -1 4 0 5 -1 4 0 5 -1"/>
<path stroke="red" d="M857 621l4 0 5 -1 4 0 5 -1 4 -1 5 0 4 -1 5 0 4 -1 5 0 4 -1 5 0 4 -1 5 0 4 -1 5 0 4 -1 5 0 4 -1 5 -1 4 0 5 -1 4 0M60 720l5 -7 4 -7 5 -6 4 -5 5 -4 4 -4 5 -3 4 -3 5 -2 4 -2 5 -1 4 -1 5 -1 4 -1 5 -1 4 -1 5 -1 4 -1 5 0 4 -1 5 0"/>
<path stroke="red" d="M155 668l4 -1 5 -1 4 0 5 -1 4 0 5 -1 4 -1 5 0 4 -1 5 0 4 -1 5 0 4 -1 5 0 4 -1 5 -1 4 0 5 -1 4 0 5 -1 4 0 5 -1 4 0 5 -1 4 -1 5 0 4 -1 5 0 4 -1 5 0 4 -1 5 0 4 -1 5 0 4 -1 5 -1 4 0 5 -1 4 0 5 -1 4 0 5 -1 4 0 5 -1 4 0 5 -1 4 -1"/>
<path stroke="red" d="M366 641l5 0 4 -1 5 0 4 -1 5 0 4 -1 5 0 4 -1 5 -1 4 0 5 -1 4 0 5 -1 4 0 5 -1 4 0 5 -1 4 0 5 -1 4 -1 5 0 4 -1 5 0 4 -1 5 0 4 -1 5 -1 4 0 5 -1 4 0 5 -1 4 0 5 -1 4 0 5 -1 4 -1 5 0 4 -1 5 0 4 -1 5 0 4 -1 5 0 4 -1 5 -1 4 0 5 -1"/>
<path stroke="red" d="M578 615l4 0 5 -1 4 0 5 -1 4 -1 5 0 4 -1 5 0 4 -1 5 0 4 -1 5 -1 4 0 5 -1 4 0 5 -1 4 0 5 -1 4 -1 5 0 4 -1 5 0 4 -1 5 0 4 -1 5 -1 4 0 5 -1 4 0 5 -1 4 0 5 -1 4 -1 5 0 4 -1 5 0 4 -1 5 0 4 -1 5 -1 4 0 5 -1 4 0 5 -1 4 0 5 -1 4 -1"/>
<path stroke="red" d="M789 588l5 0 4 -1 5 0 4 -1 5 0 4 -1 5 -1 4 0 5 -1 4 0 5 -1 4 0 5 -1 4 -1 5 0 4 -1 5 0 4 -1 5 -1 4 0 5 -1 4 0 5 -1 4 0 5 -1 4 -1 5 0 4 -1 5 0 4 -1 5 0 4 -1 5 -1 4 0 5 -1 4 0 5 -1 4 -1M60 720l5 -10 4 -9 5 -9 4 -8 5 -7 4 -6"/>
<path stroke="red" d="M87 671l5 -6 9 -9 4 -3 5 -3 4 -3 5 -2 4 -2 5 -2 4 -1 5 -2 4 -1 5 -1 4 -1 5 -1 4 -1 5 -1 4 -1 5 -1 4 -1 5 0 4 -1 5 -1 4 -1 5 0 4 -1 5 -1 4 0 5 -1 4 -1 5 -1 4 0 5 -1 4 -1 5 0 4 -1 5 -1 4 0 5 -1 4 0 5 -1 4 -1 5 0 4 -1 5 -1"/>
<path stroke="red" d="M290 612l4 0 5 -1 4 -1 5 0 4 -1 5 0 4 -1 5 -1 4 0 5 -1 4 -1 5 0 4 -1 5 -1 4 0 5 -1 4 0 5 -1 4 -1 5 0 4 -1 5 -1 4 0 5 -1 4 0 5 -1 4 -1 5 0 4 -1 5 0 4 -1 5 -1 4 0 5 -1 4 -1 5 0 4 -1 5 0 4 -1 5 -1 4 0 5 -1 4 0 5 -1 4 -1 5 0"/>
<path stroke="red" d="M497 584l4 -1 5 -1 4 0 5 -1 4 0 5 -1 4 -1 5 0 4 -1 5 0 4 -1 5 -1 4 0 5 -1 4 -1 5 0 4 -1 5 0 4 -1 5 -1 4 0 5 -1 4 0 5 -1 4 -1 5 0 4 -1 5 0 4 -1 5 -1 4 0 5 -1 4 -1 5 0 4 -1 5 0 4 -1 5 -1 4 0 5 -1 4 0 5 -1 4 -1 5 0 4 -1 5 0"/>
<path stroke="red" d="M704 556l4 -1 5 -1 4 0 5 -1 4 -1 5 0 4 -1 5 0 4 -1 5 -1 4 0 5 -1 4 0 5 -1 4 -1 5 0 4 -1 5 0 4 -1 5 -1 4 0 5 -1 4 0 5 -1 4 -1 5 0 4 -1 5 -1 4 0 5 -1 4 0 5 -1 4 -1 5 0 4 -1 5 0 4 -1 5 -1 4 0 5 -1 4 0 5 -1 4 -1 5 0 4 -1 5 0"/>
<path stroke="red" d="M911 528l4 -1 5 -1 4 0 5 -1 4 -1 5 0 4 -1 5 0 4 -1 5 -1 4 0M60 720l5 -12 4 -12 5 -11 4 -10 9 -18 5 -8 4 -7 5 -6 4 -6 9 -9 5 -4 4 -4 5 -3 4 -3 5 -2 4 -2 5 -2 4 -2 5 -2 4 -1 5 -2 4 -1 5 -1 4 -1 5 -1 4 -1 5 -1 4 -1 5 -1 4 -1"/>
<path stroke="red" d="M204 585l5 -1 4 -1 5 -1 4 -1 5 0 4 -1 5 -1 4 -1 5 -1 4 0 5 -1 4 -1 5 -1 4 0 5 -1 4 -1 5 -1 4 0 5 -1 4 -1 5 -1 4 0 5 -1 4 -1 5 0 4 -1 5 -1 4 -1 5 0 4 -1 5 -1 4 0 5 -1 4 -1 5 0 4 -1 5 -1 4 0 5 -1 4 -1 5 0 4 -1 5 -1 4 0 5 -1"/>
<path stroke="red" d="M407 552l4 -1 5 0 4 -1 5 -1 4 0 5 -1 4 -1 5 0 4 -1 5 -1 4 0 5 -1 4 -1 5 0 4 -1 5 -1 4 0 5 -1 4 -1 5 0 4 -1 5 -1 4 0 5 -1 4 -1 5 0 4 -1 5 -1 4 0 5 -1 4 -1 5 0 4 -1 5 -1 4 0 5 -1 4 0 5 -1 4 -1 5 0 4 -1 5 -1 4 0 5 -1 4 -1 5 0"/>
<path stroke="red" d="M614 522l4 -1 5 -1 4 0 5 -1 4 0 5 -1 4 -1 5 0 4 -1 5 -1 4 0 5 -1 4 -1 5 0 4 -1 5 -1 4 0 5 -1 4 0 5 -1 4 -1 5 0 4 -1 5 -1 4 0 5 -1 4 -1 5 0 4 -1 5 0 4 -1 5 -1 4 0 5 -1 4 -1 5 0 4 -1 5 0 4 -1 5 -1 4 0 5 -1 4 -1 5 0 4 -1 5 -1"/>
<path stroke="red" d="M821 492l4 0 5 -1 4 0 5 -1 4 -1 5 0 4 -1 5 -1 4 0 5 -1 4 0 5 -1 4 -1 5 0 4 -1 5 -1 4 0 5 -1 4 0 5 -1 4 -1 5 0 4 -1 5 -1 4 0 5 -1 4 -1 5 0 4 -1 5 0 4 -1M60 720l5 -14 4 -14 5 -12 4 -13 5 -11 4 -11 5 -9 4 -9 5 -9 4 -7 5 -7"/>
<path stroke="red" d="M110 604l4 -7 5 -5 4 -6 5 -4 4 -5 5 -4 4 -3 5 -3 4 -3 5 -3 4 -2 5 -2 4 -2 5 -2 4 -2 5 -1 4 -2 5 -1 4 -1 5 -2 4 -1 5 -1 4 -1 5 -1 4 -1 5 -1 4 -1 5 -1 4 -1 5 -1 4 -1 5 -1 4 -1 5 -1 4 -1 5 -1 4 0 5 -1 4 -1 5 -1 4 -1 5 -1 4 0"/>
<path stroke="red" d="M303 523l5 -1 4 -1 5 -1 4 0 5 -1 4 -1 5 -1 4 -1 5 0 4 -1 5 -1 4 -1 5 0 4 -1 5 -1 4 -1 5 0 4 -1 5 -1 4 0 5 -1 4 -1 5 -1 4 0 5 -1 4 -1 5 0 4 -1 5 -1 4 -1 5 0 4 -1 5 -1 4 0 5 -1 4 -1 5 -1 4 0 5 -1 4 -1 5 0 4 -1 5 -1 4 0 5 -1"/>
<path stroke="red" d="M506 490l4 -1 5 0 4 -1 5 -1 4 -1 5 0 4 -1 5 -1 4 0 5 -1 4 -1 5 0 4 -1 5 -1 4 0 5 -1 4 -1 5 0 4 -1 5 -1 4 0 5 -1 4 -1 5 0 4 -1 5 -1 4 0 5 -1 4 -1 5 0 4 -1 5 -1 4 0 5 -1 4 -1 5 0 4 -1 5 -1 4 0 5 -1 4 -1 5 0 4 -1 5 -1 4 0 5 -1"/>
<path stroke="red" d="M713 459l4 -1 5 0 4 -1 5 -1 4 0 5 -1 4 0 5 -1 4 -1 5 0 4 -1 5 -1 4 0 5 -1 4 -1 5 0 4 -1 5 -1 4 0 5 -1 4 -1 5 0 4 -1 5 -1 4 0 5 -1 4 0 5 -1 4 -1 5 0 4 -1 5 -1 4 0 5 -1 4 -1 5 0 4 -1 5 -1 4 0 5 -1 4 0 5 -1 4 -1 5 0 4 -1 5 -1"/>
<path stroke="red" d="M920 429l4 0 5 -1 4 -1 5 0 4 -1 5 0 4 -1 5 -1 4 0M60 720l5 -15 4 -15 5 -15 4 -14 5 -13 4 -12 5 -11 4 -11 5 -10 4 -9 5 -9 4 -8 5 -8 4 -7 5 -6 4 -6 5 -5 4 -5 9 -9 5 -4 4 -4 5 -3 4 -3 5 -2 4 -3 5 -2 4 -2 5 -2 4 -2 5 -2 4 -2"/>
<path stroke="red" d="M204 501l5 -1 4 -2 5 -1 4 -1 5 -2 4 -1 5 -1 4 -2 5 -1 4 -1 5 -1 4 -1 5 -1 4 -1 5 -1 4 -1 5 -1 4 -1 5 -1 4 -1 5 -1 4 -1 5 -1 4 0 5 -1 4 -1 5 -1 4 -1 5 -1 4 -1 5 0 4 -1 5 -1 4 -1 5 -1 4 0 5 -1 4 -1 5 -1 4 -1 5 0 4 -1 5 -1"/>
<path stroke="red" d="M398 459l4 -1 5 -1 4 0 5 -1 4 -1 5 -1 4 0 5 -1 4 -1 5 -1 4 0 5 -1 4 -1 5 -1 4 0 5 -1 4 -1 5 0 4 -1 5 -1 4 -1 5 0 4 -1 5 -1 4 -1 5 0 4 -1 5 -1 4 0 5 -1 4 -1 5 0 4 -1 5 -1 4 -1 5 0 4 -1 5 -1 4 0 5 -1 4 -1 5 0 4 -1 5 -1 4 -1"/>
<path stroke="red" d="M600 426l5 0 4 -1 5 -1 4 0 5 -1 4 -1 5 0 4 -1 5 -1 4 0 5 -1 4 -1 5 0 4 -1 5 -1 4 0 5 -1 4 -1 5 -1 4 0 5 -1 4 -1 5 0 4 -1 5 -1 4 0 5 -1 4 -1 5 0 4 -1 5 -1 4 0 5 -1 4 -1 5 0 4 -1 5 -1 4 0 5 -1 4 -1 5 0 4 -1 5 -1 4 0 5 -1 4 -1"/>
<path stroke="red" d="M807 395l5 0 4 -1 5 0 4 -1 5 -1 4 0 5 -1 4 -1 5 0 4 -1 5 -1 4 0 5 -1 4 -1 5 0 4 -1 5 -1 4 0 5 -1 4 -1 5 0 4 -1 5 -1 4 0 5 -1 4 0 5 -1 4 -1 5 0 4 -1 5 -1 4 0 5 -1 4 -1M60 720l5 -17 4 -16 5 -15 4 -15 5 -15 4 -13 5 -13 4 -13"/>
<path stroke="red" d="M96 603l5 -11 4 -11 5 -10 4 -10 5 -9 4 -8 5 -8 4 -8 5 -6 4 -7 5 -6 4 -6 5 -5 4 -5 5 -4 4 -4 5 -4 4 -3 5 -4 4 -3 5 -2 4 -3 5 -2 4 -3 5 -2 4 -2 5 -2 4 -2 5 -1 4 -2 5 -2 4 -1 5 -2 4 -1 5 -1 4 -2 5 -1 4 -1 5 -1 4 -2 5 -1 4 -1"/>
<path stroke="red" d="M285 434l5 -1 4 -1 5 -1 4 -1 5 -1 4 -1 5 -1 4 -1 5 -1 4 -1 5 -1 4 -1 5 -1 4 -1 5 -1 4 -1 5 -1 4 0 5 -1 4 -1 5 -1 4 -1 5 -1 4 0 5 -1 4 -1 5 -1 4 -1 5 -1 4 0 5 -1 4 -1 5 -1 4 -1 5 0 4 -1 5 -1 4 -1 5 0 4 -1 5 -1 4 -1 5 -1 4 0"/>
<path stroke="red" d="M483 396l5 -1 4 -1 5 -1 4 0 5 -1 4 -1 5 -1 4 0 5 -1 4 -1 5 -1 4 0 5 -1 4 -1 5 0 4 -1 5 -1 4 -1 5 0 4 -1 5 -1 4 0 5 -1 4 -1 5 -1 4 0 5 -1 4 -1 5 0 4 -1 5 -1 4 -1 5 0 4 -1 5 -1 4 0 5 -1 4 -1 5 0 4 -1 5 -1 4 -1 5 0 4 -1 5 -1"/>
<path stroke="red" d="M686 363l4 0 5 -1 4 -1 5 0 4 -1 5 -1 4 0 5 -1 4 -1 5 0 4 -1 5 -1 4 0 5 -1 4 -1 5 0 4 -1 5 -1 4 -1 5 0 4 -1 5 -1 4 0 5 -1 4 -1 5 0 4 -1 5 -1 4 0 5 -1 4 -1 5 0 4 -1 5 0 4 -1 5 -1 4 0 5 -1 4 -1 5 0 4 -1 5 -1 4 0 5 -1 4 -1 5 0"/>
<path stroke="red" d="M893 333l4 -1 5 -1 4 0 5 -1 4 -1 5 0 4 -1 5 -1 4 0 5 -1 4 -1 5 0 4 -1 5 0 4 -1M60 720l5 -17 4 -18 5 -16 4 -16 5 -16 4 -15 5 -14 4 -13 5 -13 4 -12 5 -12 4 -11 5 -10 4 -10 5 -9 4 -9 5 -8 4 -8 5 -7 4 -7 5 -7 4 -6 5 -5 4 -6"/>
<path stroke="red" d="M168 455l18 -18 5 -3 4 -4 5 -3 4 -3 5 -3 4 -3 5 -2 4 -3 5 -2 4 -2 5 -2 4 -2 5 -2 4 -2 5 -2 4 -1 5 -2 4 -1 5 -2 4 -1 5 -2 4 -1 5 -1 4 -2 5 -1 4 -1 5 -1 4 -1 5 -2 4 -1 5 -1 4 -1 5 -1 4 -1 5 -1 4 -1 5 -1 4 -1 5 -1 4 -1 5 -1"/>
<path stroke="red" d="M371 368l4 -1 5 -1 4 -1 5 -1 4 -1 5 0 4 -1 5 -1 4 -1 5 -1 4 -1 5 -1 4 -1 5 0 4 -1 5 -1 4 -1 5 -1 4 -1 5 0 4 -1 5 -1 4 -1 5 -1 4 0 5 -1 4 -1 5 -1 4 0 5 -1 4 -1 5 -1 4 -1 5 0 4 -1 5 -1 4 -1 5 0 4 -1 5 -1 4 -1 5 0 4 -1 5 -1"/>
<path stroke="red" d="M569 332l4 -1 5 0 4 -1 5 -1 4 -1 5 0 4 -1 5 -1 4 0 5 -1 4 -1 5 -1 4 0 5 -1 4 -1 5 0 4 -1 5 -1 4 -1 5 0 4 -1 5 -1 4 0 5 -1 4 -1 5 -1 4 0 5 -1 4 -1 5 0 4 -1 5 -1 4 0 5 -1 4 -1 5 0 4 -1 5 -1 4 -1 5 0 4 -1 5 -1 4 0 5 -1 4 -1"/>
<path stroke="red" d="M771 300l5 0 4 -1 5 -1 4 0 5 -1 4 -1 5 0 4 -1 5 -1 4 0 5 -1 4 -1 5 0 4 -1 5 -1 4 0 5 -1 4 -1 5 0 4 -1 5 -1 4 0 5 -1 4 -1 5 0 4 -1 5 -1 4 0 5 -1 4 -1 5 0 4 -1 5 0 4 -1 5 -1 4 0 5 -1 4 -1 5 0 4 -1 5 -1 4 0M60 720l5 -18 4 -18"/>
<path stroke="red" d="M69 684l5 -18 4 -17 5 -16 4 -16 5 -15 4 -15 5 -13 4 -14 5 -13 4 -12 5 -11 4 -11 5 -11 4 -10 5 -9 4 -9 5 -9 4 -8 5 -7 4 -7 5 -7 4 -7 5 -6 4 -5 5 -6 4 -5 9 -9 5 -4 4 -4 5 -4 4 -3 5 -4 4 -3 5 -3 4 -3 5 -2 4 -3 5 -2 4 -2 5 -3"/>
<path stroke="red" d="M254 358l4 -2 5 -2 4 -2 5 -1 4 -2 5 -2 4 -1 5 -2 4 -2 5 -1 4 -2 5 -1 4 -1 5 -2 4 -1 5 -1 4 -1 5 -2 4 -1 5 -1 4 -1 5 -1 4 -1 5 -1 4 -2 5 -1 4 -1 5 -1 4 -1 5 -1 4 -1 5 -1 4 -1 5 -1 4 0 5 -1 4 -1 5 -1 4 -1 5 -1 4 -1 5 -1 4 -1"/>
<path stroke="red" d="M447 305l5 -1 4 -1 5 0 4 -1 5 -1 4 -1 5 -1 4 -1 5 0 4 -1 5 -1 4 -1 5 -1 4 -1 5 0 4 -1 5 -1 4 -1 5 0 4 -1 5 -1 4 -1 5 -1 4 0 5 -1 4 -1 5 -1 4 0 5 -1 4 -1 5 -1 4 0 5 -1 4 -1 5 -1 4 0 5 -1 4 -1 5 -1 4 0 5 -1 4 -1 5 -1 4 0 5 -1"/>
<path stroke="red" d="M650 270l4 -1 5 0 4 -1 5 -1 4 -1 5 0 4 -1 5 -1 4 0 5 -1 4 -1 5 -1 4 0 5 -1 4 -1 5 0 4 -1 5 -1 4 0 5 -1 4 -1 5 0 4 -1 5 -1 4 -1 5 0 4 -1 5 -1 4 0 5 -1 4 -1 5 0 4 -1 5 -1 4 0 5 -1 4 -1 5 0 4 -1 5 -1 4 0 5 -1 4 -1 5 0 4 -1"/>
<path stroke="red" d="M852 239l5 -1 4 0 5 -1 4 -1 5 0 4 -1 5 -1 4 0 5 -1 4 -1 5 0 4 -1 5 -1 4 0 5 -1 4 0 5 -1 4 -1 5 0 4 -1 5 -1 4 0 5 -1 4 -1M60 720l5 -19 4 -18 5 -19 4 -17 5 -17 4 -17 5 -16 4 -16 5 -14 4 -15 5 -13 4 -14 5 -12 4 -12 5 -12 4 -11"/>
<path stroke="red" d="M132 478l5 -10 4 -10 5 -10 4 -9 5 -9 4 -8 5 -8 4 -7 5 -7 4 -7 5 -6 4 -6 5 -6 4 -5 5 -5 4 -5 9 -9 5 -4 4 -4 5 -4 4 -4 5 -3 4 -3 5 -3 4 -3 5 -3 4 -2 5 -3 4 -2 5 -2 4 -2 5 -2 4 -2 5 -2 4 -2 5 -2 4 -2 5 -1 4 -2 5 -2 4 -1 5 -2"/>
<path stroke="red" d="M326 289l4 -1 5 -1 4 -2 5 -1 4 -1 5 -2 4 -1 5 -1 4 -1 5 -2 4 -1 5 -1 4 -1 5 -1 4 -1 5 -1 4 -1 5 -1 4 -1 5 -1 4 -1 5 -1 4 -1 5 -1 4 -1 5 -1 4 -1 5 -1 4 -1 5 -1 4 -1 5 -1 4 -1 5 -1 4 0 5 -1 4 -1 5 -1 4 -1 5 -1 4 -1 5 0 4 -1"/>
<path stroke="red" d="M519 245l5 -1 4 -1 5 -1 4 -1 5 0 4 -1 5 -1 4 -1 5 -1 4 0 5 -1 4 -1 5 -1 4 -1 5 0 4 -1 5 -1 4 -1 5 0 4 -1 5 -1 4 -1 5 0 4 -1 5 -1 4 -1 5 0 4 -1 5 -1 4 -1 5 0 4 -1 5 -1 4 0 5 -1 4 -1 5 -1 4 0 5 -1 4 -1 5 0 4 -1 5 -1 4 -1 5 0"/>
<path stroke="red" d="M722 211l4 -1 5 -1 4 0 5 -1 4 -1 5 0 4 -1 5 -1 4 -1 5 0 4 -1 5 -1 4 0 5 -1 4 -1 5 0 4 -1 5 -1 4 0 5 -1 4 -1 5 0 4 -1 5 -1 4 0 5 -1 4 -1 5 0 4 -1 5 -1 4 0 5 -1 4 -1 5 0 4 -1 5 -1 4 0 5 -1 4 -1 5 0 4 -1 5 -1 4 0 5 -1 4 0 5 -1"/>
<path stroke="red" d="M929 180l4 -1 5 0 4 -1 5 -1 4 0 5 -1 4 -1M60 720l5 -19 4 -19 5 -19 4 -18 5 -18 4 -18 5 -16 4 -17 5 -15 4 -15 5 -15 4 -14 5 -14 4 -12 5 -13 4 -12 5 -11 4 -11 5 -11 4 -10 5 -9 4 -10 5 -8 4 -9 5 -8 4 -7 5 -7 4 -7 5 -7 4 -6"/>
<path stroke="red" d="M195 345l5 -6 4 -6 5 -5 4 -5 5 -5 4 -5 9 -9 5 -4 4 -4 5 -3 4 -4 5 -3 4 -3 5 -3 4 -3 5 -3 4 -2 5 -3 4 -2 5 -3 4 -2 5 -2 4 -2 5 -2 4 -2 5 -2 4 -2 5 -1 4 -2 5 -2 4 -1 5 -2 4 -1 5 -2 4 -1 5 -2 4 -1 5 -1 4 -2 5 -1 4 -1 5 -1 4 -2"/>
<path stroke="red" d="M393 227l5 -1 4 -1 5 -1 4 -1 5 -1 4 -1 5 -1 4 -2 5 -1 4 -1 5 -1 4 -1 5 -1 4 -1 5 -1 4 -1 5 -1 4 -1 5 0 4 -1 5 -1 4 -1 5 -1 4 -1 5 -1 4 -1 5 -1 4 -1 5 0 4 -1 5 -1 4 -1 5 -1 4 -1 5 -1 4 0 5 -1 4 -1 5 -1 4 -1 5 0 4 -1 5 -1"/>
<path stroke="red" d="M587 187l4 -1 5 -1 4 0 5 -1 4 -1 5 -1 4 0 5 -1 4 -1 5 -1 4 -1 5 0 4 -1 5 -1 4 -1 5 0 4 -1 5 -1 4 0 5 -1 4 -1 5 -1 4 0 5 -1 4 -1 5 -1 4 0 5 -1 4 -1 5 0 4 -1 5 -1 4 0 5 -1 4 -1 5 -1 4 0 5 -1 4 -1 5 0 4 -1 5 -1 4 0 5 -1 4 -1"/>
<path stroke="red" d="M789 154l5 0 4 -1 5 -1 4 0 5 -1 4 -1 5 0 4 -1 5 -1 4 0 5 -1 4 -1 5 0 4 -1 5 -1 4 0 5 -1 4 -1 5 0 4 -1 5 -1 4 0 5 -1 4 -1 5 0 4 -1 5 -1 4 0 5 -1 4 -1 5 0 4 -1 5 0 4 -1 5 -1 4 0 5 -1 4 -1"/>
</svg>
