<?xml version="1.0" standalone="yes"?>
<!DOCTYPE svg PUBLIC "-//W3C//DTD SVG 1.1//EN"
 "http://www.w3.org/Graphics/SVG/1.1/DTD/svg11.dtd">
<svg xmlns="http://www.w3.org/2000/svg" version="1.1"
  width="100%" height="100%" viewBox="0 0 1024 768"
  style="fill: none; stroke-width: 3; font-family: Helvetica;
 font: Helvetica;
">

<!-- Creator: NGspice -->

<rect x="0" y="0" width="1024" height="768" fill="black" stroke="none"/>
<text stroke="none" fill="white" font-size="16" x="358" y="752">
v-sweep
</text>
<text stroke="none" fill="white" font-size="16" x="10" y="16">
dc1: ** sch_path: /media/sf_sharedlnx/asap_7nm_xschem/inverter_finfet.sch
</text>
<path stroke="white" stroke-width="3" d="M60 720l0 -672"/>
<text stroke="none" fill="white" font-size="16" x="45" y="728">
0.0
</text>
<path stroke="white" stroke-width="3" stroke-dasharray="1,2" d="M189 720l0 -672"/>
<text stroke="none" fill="white" font-size="16" x="164" y="728">
100.0
</text>
<path stroke="white" stroke-width="3" stroke-dasharray="1,2" d="M318 720l0 -672"/>
<text stroke="none" fill="white" font-size="16" x="293" y="728">
200.0
</text>
<path stroke="white" stroke-width="3" stroke-dasharray="1,2" d="M447 720l0 -672"/>
<text stroke="none" fill="white" font-size="16" x="422" y="728">
300.0
</text>
<path stroke="white" stroke-width="3" stroke-dasharray="1,2" d="M576 720l0 -672"/>
<text stroke="none" fill="white" font-size="16" x="551" y="728">
400.0
</text>
<path stroke="white" stroke-width="3" stroke-dasharray="1,2" d="M705 720l0 -672"/>
<text stroke="none" fill="white" font-size="16" x="680" y="728">
500.0
</text>
<path stroke="white" stroke-width="3" stroke-dasharray="1,2" d="M834 720l0 -672"/>
<text stroke="none" fill="white" font-size="16" x="809" y="728">
600.0
</text>
<path stroke="white" stroke-width="3" stroke-dasharray="1,2" d="M963 720l0 -672"/>
<text stroke="none" fill="white" font-size="16" x="938" y="728">
700.0
</text>
<text stroke="none" fill="white" font-size="16" x="614" y="752">
mV
</text>
<path stroke="white" stroke-width="3" d="M60 720l903 0"/>
<text stroke="none" fill="white" font-size="16" x="28" y="728">
0.0
</text>
<path stroke="white" stroke-width="3" stroke-dasharray="1,2" d="M60 636l903 0"/>
<text stroke="none" fill="white" font-size="16" x="28" y="644">
2.0
</text>
<path stroke="white" stroke-width="3" stroke-dasharray="1,2" d="M60 552l903 0"/>
<text stroke="none" fill="white" font-size="16" x="28" y="560">
4.0
</text>
<path stroke="white" stroke-width="3" stroke-dasharray="1,2" d="M60 468l903 0"/>
<text stroke="none" fill="white" font-size="16" x="28" y="476">
6.0
</text>
<path stroke="white" stroke-width="3" stroke-dasharray="1,2" d="M60 384l903 0"/>
<text stroke="none" fill="white" font-size="16" x="28" y="392">
8.0
</text>
<path stroke="white" stroke-width="3" stroke-dasharray="1,2" d="M60 300l903 0"/>
<text stroke="none" fill="white" font-size="16" x="18" y="308">
10.0
</text>
<path stroke="white" stroke-width="3" stroke-dasharray="1,2" d="M60 216l903 0"/>
<text stroke="none" fill="white" font-size="16" x="18" y="224">
12.0
</text>
<path stroke="white" stroke-width="3" stroke-dasharray="1,2" d="M60 132l903 0"/>
<text stroke="none" fill="white" font-size="16" x="18" y="140">
14.0
</text>
<path stroke="white" stroke-width="3" stroke-dasharray="1,2" d="M60 48l903 0"/>
<text stroke="none" fill="white" font-size="16" x="18" y="56">
16.0
</text>
<text stroke="none" fill="white" font-size="16" x="10" y="32">
     
</text>
<path stroke="red" d="M451 23l45 0"/>
<text stroke="none" fill="white" font-size="16" x="506" y="32">
r_out
</text>
<path stroke="red" d="M60 720l4 0 1 -1 50 0 2 -1 23 0 1 -1 17 0 1 -1 13 0 2 -1 9 0 1 -1 9 0 1 -1 8 0 1 -1 8 0 1 -1 7 0 1 -1 6 0 2 -1 5 0 1 -1 5 0 2 -1 5 0 1 -1 5 0 2 -1 5 0 1 -1 5 0 1 -1 4 0 2 -1 5 0 1 -1 4 0 1 -1 5 0 2 -1 3 0 2 -1 4 0 1 -1 4 0"/>
<path stroke="red" d="M304 697l1 -1 4 0 1 -1 4 0 1 -1 4 0 2 -1 2 0 1 -1 4 0 2 -1 2 0 1 -1 3 0 1 -1 3 0 1 -1 3 0 1 -1 3 0 1 -1 3 0 1 -1 2 0 2 -1 1 0 1 -1 3 0 1 -1 1 0 2 -1 1 0 1 -1 2 0 1 -1 1 0 1 -1 2 0 1 -1 1 0 2 -1 1 0 1 -1 2 0 2 -2 1 0 2 -1"/>
<path stroke="red" d="M388 672l1 0 1 -1 2 -1 1 0 2 -2 2 -1 1 0 1 -1 2 -1 3 -3 2 0 2 -2 2 -1 7 -7 2 -1 1 -1 1 -2 1 -1 2 -1 1 -2 4 -4 1 -2 3 -3 2 -4 2 -2 2 -4 2 -2 1 -2 1 -3 1 -2 2 -2 1 -3 1 -2 2 -3 3 -9 2 -3 2 -6 2 -3 1 -4 1 -3 1 -4 2 -4 2 -8"/>
<path stroke="red" d="M466 562l2 -4 2 -8 2 -4 1 -5 1 -4 1 -5 2 -4 1 -5 1 -4 2 -5 1 -4 1 -5 1 -4 2 -4 1 -5 1 -4 2 -4 2 -8 1 -3 2 -3 1 -4 1 -3 2 -2 1 -3 2 -4 2 -1 2 -2 2 -1 2 0 2 1 2 2 1 2 2 3 1 2 1 4 2 3 1 4 2 10 2 5 2 12 2 7 1 6 1 7 1 6 2 7 1 7"/>
<path stroke="red" d="M536 538l1 6 2 7 3 18 2 6 1 6 1 5 2 5 1 4 1 5 1 4 2 4 1 4 1 3 2 3 1 4 1 2 2 3 1 3 1 2 1 3 2 2 2 4 2 2 3 6 2 1 1 2 4 4 1 2 1 1 2 1 1 1 1 2 2 1 3 3 2 1 2 2 2 1 1 0 1 1 2 1 2 2 1 0 2 1 1 1 1 0 2 1 1 1 1 0 1 1 2 1 1 0 1 1 2 0"/>
<path stroke="red" d="M619 682l1 1 1 0 1 1 2 0 1 1 1 0 2 1 1 0 1 1 3 0 1 1 1 0 2 1 2 0 2 1 1 0 1 1 3 0 1 1 3 0 1 1 4 0 1 1 3 0 1 1 4 0 1 1 3 0 1 1 4 0 1 1 5 0 1 1 4 0 2 1 5 0 1 1 5 0 2 1 6 0 1 1 5 0 2 1 6 0 1 1 8 0 2 1 6 0 1 1 8 0 1 1 8 0 1 1"/>
<path stroke="red" d="M755 709l9 0 2 1 9 0 1 1 9 0 1 1 11 0 1 1 11 0 2 1 11 0 2 1 13 0 1 1 15 0 2 1 18 0 1 1 26 0 1 1 48 0 1 1 9 0 1 -6 2 -224 1 -437"/>
</svg>
