<?xml version="1.0" standalone="yes"?>
<!DOCTYPE svg PUBLIC "-//W3C//DTD SVG 1.1//EN"
 "http://www.w3.org/Graphics/SVG/1.1/DTD/svg11.dtd">
<svg xmlns="http://www.w3.org/2000/svg" version="1.1"
  width="100%" height="100%" viewBox="0 0 1024 768"
  style="fill: none; stroke-width: 3; font-family: Helvetica;
 font: Helvetica;
">

<!-- Creator: NGspice -->

<rect x="0" y="0" width="1024" height="768" fill="black" stroke="none"/>
<text stroke="none" fill="white" font-size="16" x="358" y="752">
time
</text>
<text stroke="none" fill="white" font-size="16" x="10" y="16">
tran1: ** sch_path: /media/sf_sharedlnx/asap_7nm_xschem/inverter_finfet.sch
</text>
<path stroke="white" stroke-width="3" d="M70 720l0 -666"/>
<text stroke="none" fill="white" font-size="16" x="55" y="728">
0.0
</text>
<path stroke="white" stroke-width="3" stroke-dasharray="1,2" d="M158 720l0 -666"/>
<text stroke="none" fill="white" font-size="16" x="138" y="728">
10.0
</text>
<path stroke="white" stroke-width="3" stroke-dasharray="1,2" d="M246 720l0 -666"/>
<text stroke="none" fill="white" font-size="16" x="226" y="728">
20.0
</text>
<path stroke="white" stroke-width="3" stroke-dasharray="1,2" d="M334 720l0 -666"/>
<text stroke="none" fill="white" font-size="16" x="314" y="728">
30.0
</text>
<path stroke="white" stroke-width="3" stroke-dasharray="1,2" d="M422 720l0 -666"/>
<text stroke="none" fill="white" font-size="16" x="402" y="728">
40.0
</text>
<path stroke="white" stroke-width="3" stroke-dasharray="1,2" d="M510 720l0 -666"/>
<text stroke="none" fill="white" font-size="16" x="490" y="728">
50.0
</text>
<path stroke="white" stroke-width="3" stroke-dasharray="1,2" d="M598 720l0 -666"/>
<text stroke="none" fill="white" font-size="16" x="578" y="728">
60.0
</text>
<path stroke="white" stroke-width="3" stroke-dasharray="1,2" d="M686 720l0 -666"/>
<text stroke="none" fill="white" font-size="16" x="666" y="728">
70.0
</text>
<path stroke="white" stroke-width="3" stroke-dasharray="1,2" d="M774 720l0 -666"/>
<text stroke="none" fill="white" font-size="16" x="754" y="728">
80.0
</text>
<path stroke="white" stroke-width="3" stroke-dasharray="1,2" d="M862 720l0 -666"/>
<text stroke="none" fill="white" font-size="16" x="842" y="728">
90.0
</text>
<path stroke="white" stroke-width="3" stroke-dasharray="1,2" d="M950 720l0 -666"/>
<text stroke="none" fill="white" font-size="16" x="925" y="728">
100.0
</text>
<text stroke="none" fill="white" font-size="16" x="614" y="752">
ps
</text>
<path stroke="white" stroke-width="3" stroke-dasharray="1,2" d="M70 720l880 0"/>
<text stroke="none" fill="white" font-size="16" x="8" y="728">
-100.0
</text>
<path stroke="white" stroke-width="3" d="M70 646l880 0"/>
<text stroke="none" fill="white" font-size="16" x="38" y="654">
0.0
</text>
<path stroke="white" stroke-width="3" stroke-dasharray="1,2" d="M70 572l880 0"/>
<text stroke="none" fill="white" font-size="16" x="18" y="580">
100.0
</text>
<path stroke="white" stroke-width="3" stroke-dasharray="1,2" d="M70 498l880 0"/>
<text stroke="none" fill="white" font-size="16" x="18" y="506">
200.0
</text>
<path stroke="white" stroke-width="3" stroke-dasharray="1,2" d="M70 424l880 0"/>
<text stroke="none" fill="white" font-size="16" x="18" y="432">
300.0
</text>
<path stroke="white" stroke-width="3" stroke-dasharray="1,2" d="M70 350l880 0"/>
<text stroke="none" fill="white" font-size="16" x="18" y="358">
400.0
</text>
<path stroke="white" stroke-width="3" stroke-dasharray="1,2" d="M70 276l880 0"/>
<text stroke="none" fill="white" font-size="16" x="18" y="284">
500.0
</text>
<path stroke="white" stroke-width="3" stroke-dasharray="1,2" d="M70 202l880 0"/>
<text stroke="none" fill="white" font-size="16" x="18" y="210">
600.0
</text>
<path stroke="white" stroke-width="3" stroke-dasharray="1,2" d="M70 128l880 0"/>
<text stroke="none" fill="white" font-size="16" x="18" y="136">
700.0
</text>
<path stroke="white" stroke-width="3" stroke-dasharray="1,2" d="M70 54l880 0"/>
<text stroke="none" fill="white" font-size="16" x="18" y="62">
800.0
</text>
<text stroke="none" fill="white" font-size="16" x="10" y="32">
mV
</text>
<path stroke="red" d="M440 23l44 0"/>
<text stroke="none" fill="white" font-size="16" x="494" y="32">
nfet_in
</text>
<path stroke="red" d="M70 603l176 0 1 -5 2 -11 3 -21 7 -41 18 -104 9 -51 8 -52 27 -156 9 -51 4 -26 176 0 3 15 3 21 7 41 27 156 8 52 9 51 27 156 4 26 352 0"/>
<path stroke="blue" d="M70 23l44 0"/>
<text stroke="none" fill="white" font-size="16" x="124" y="32">
nfet_out
</text>
<path stroke="blue" d="M70 129l176 0 1 -3 2 -5 3 0 7 9 9 24 9 50 9 128 8 208 9 83 9 5 9 12 9 -2 4 2 3 6 173 0 1 3 2 3 3 1 7 -1 9 -3 9 -11 9 -23 8 -50 9 -152 9 -187 9 -69 9 -12 4 -5 1 -4 2 -5 3 -2 346 0"/>
</svg>
