<?xml version="1.0" standalone="yes"?>
<!DOCTYPE svg PUBLIC "-//W3C//DTD SVG 1.1//EN"
 "http://www.w3.org/Graphics/SVG/1.1/DTD/svg11.dtd">
<svg xmlns="http://www.w3.org/2000/svg" version="1.1"
  width="100%" height="100%" viewBox="0 0 1024 768"
  style="fill: none; stroke-width: 3; font-family: Helvetica;
 font: Helvetica;
">

<!-- Creator: NGspice -->

<rect x="0" y="0" width="1024" height="768" fill="black" stroke="none"/>
<text stroke="none" fill="white" font-size="16" x="358" y="752">
v-sweep
</text>
<text stroke="none" fill="white" font-size="16" x="10" y="16">
dc1: ** sch_path: /media/sf_sharedlnx/asap_7nm_xschem/inverter_finfet.sch
</text>
<path stroke="white" stroke-width="3" d="M70 720l0 -672"/>
<text stroke="none" fill="white" font-size="16" x="55" y="728">
0.0
</text>
<path stroke="white" stroke-width="3" stroke-dasharray="1,2" d="M196 720l0 -672"/>
<text stroke="none" fill="white" font-size="16" x="171" y="728">
100.0
</text>
<path stroke="white" stroke-width="3" stroke-dasharray="1,2" d="M322 720l0 -672"/>
<text stroke="none" fill="white" font-size="16" x="297" y="728">
200.0
</text>
<path stroke="white" stroke-width="3" stroke-dasharray="1,2" d="M448 720l0 -672"/>
<text stroke="none" fill="white" font-size="16" x="423" y="728">
300.0
</text>
<path stroke="white" stroke-width="3" stroke-dasharray="1,2" d="M574 720l0 -672"/>
<text stroke="none" fill="white" font-size="16" x="549" y="728">
400.0
</text>
<path stroke="white" stroke-width="3" stroke-dasharray="1,2" d="M700 720l0 -672"/>
<text stroke="none" fill="white" font-size="16" x="675" y="728">
500.0
</text>
<path stroke="white" stroke-width="3" stroke-dasharray="1,2" d="M826 720l0 -672"/>
<text stroke="none" fill="white" font-size="16" x="801" y="728">
600.0
</text>
<path stroke="white" stroke-width="3" stroke-dasharray="1,2" d="M952 720l0 -672"/>
<text stroke="none" fill="white" font-size="16" x="927" y="728">
700.0
</text>
<text stroke="none" fill="white" font-size="16" x="614" y="752">
mV
</text>
<path stroke="white" stroke-width="3" d="M70 720l882 0"/>
<text stroke="none" fill="white" font-size="16" x="38" y="728">
0.0
</text>
<path stroke="white" stroke-width="3" stroke-dasharray="1,2" d="M70 624l882 0"/>
<text stroke="none" fill="white" font-size="16" x="28" y="632">
50.0
</text>
<path stroke="white" stroke-width="3" stroke-dasharray="1,2" d="M70 528l882 0"/>
<text stroke="none" fill="white" font-size="16" x="18" y="536">
100.0
</text>
<path stroke="white" stroke-width="3" stroke-dasharray="1,2" d="M70 432l882 0"/>
<text stroke="none" fill="white" font-size="16" x="18" y="440">
150.0
</text>
<path stroke="white" stroke-width="3" stroke-dasharray="1,2" d="M70 336l882 0"/>
<text stroke="none" fill="white" font-size="16" x="18" y="344">
200.0
</text>
<path stroke="white" stroke-width="3" stroke-dasharray="1,2" d="M70 240l882 0"/>
<text stroke="none" fill="white" font-size="16" x="18" y="248">
250.0
</text>
<path stroke="white" stroke-width="3" stroke-dasharray="1,2" d="M70 144l882 0"/>
<text stroke="none" fill="white" font-size="16" x="18" y="152">
300.0
</text>
<path stroke="white" stroke-width="3" stroke-dasharray="1,2" d="M70 48l882 0"/>
<text stroke="none" fill="white" font-size="16" x="18" y="56">
350.0
</text>
<text stroke="none" fill="white" font-size="16" x="10" y="32">
uA
</text>
<path stroke="red" d="M441 23l44 0"/>
<text stroke="none" fill="white" font-size="16" x="495" y="32">
id
</text>
<path stroke="red" d="M70 718l5 0 1 -1 14 0 1 -1 11 0 1 -1 7 0 2 -1 6 0 1 -1 6 0 2 -1 3 0 2 -1 4 0 1 -1 4 0 1 -1 4 0 1 -1 2 0 2 -1 2 0 1 -1 2 0 1 -1 2 0 2 -1 1 0 1 -1 3 0 1 -1 1 0 2 -1 1 0 1 -1 1 0 2 -1 1 0 1 -1 1 0 2 -1 1 -1 1 0 1 -1 2 0 2 -2"/>
<path stroke="red" d="M187 693l1 0 2 -1 1 -1 1 0 1 -1 2 -1 1 -1 1 0 2 -1 3 -3 2 0 3 -3 2 -1 3 -3 2 -1 3 -3 2 -1 3 -3 2 -1 1 -1 1 -2 2 -1 2 -2 1 -2 2 -1 2 -2 1 -2 2 -1 1 -1 1 -2 5 -5 1 -2 2 -1 2 -4 4 -4 2 -4 2 -1 2 -4 2 -1 3 -6 2 -1 3 -6 2 -2"/>
<path stroke="red" d="M272 610l3 -6 2 -2 3 -6 2 -2 3 -6 2 -2 2 -4 2 -2 1 -3 2 -4 2 -2 1 -3 2 -4 2 -2 1 -3 2 -4 2 -3 1 -2 1 -3 1 -2 2 -2 1 -3 1 -2 1 -3 2 -2 1 -3 1 -2 1 -3 2 -3 1 -2 1 -3 2 -2 2 -6 1 -2 2 -3 1 -3 1 -2 1 -3 2 -3 1 -2 2 -6 2 -3 1 -2"/>
<path stroke="red" d="M341 480l2 -6 2 -3 1 -3 1 -2 1 -3 2 -3 2 -6 2 -3 2 -6 1 -2 2 -3 3 -9 2 -3 3 -9 2 -3 3 -9 2 -3 3 -9 2 -3 1 -4 2 -6 2 -3 2 -6 2 -3 3 -9 2 -4 3 -9 2 -3 2 -6 1 -4 2 -3 3 -9 2 -3 1 -4 2 -6 2 -3 2 -6 2 -4 3 -9 2 -3 1 -4 2 -6 2 -3"/>
<path stroke="red" d="M427 272l2 -6 1 -4 2 -3 3 -9 2 -3 2 -6 1 -4 2 -3 3 -9 2 -3 2 -6 2 -3 3 -9 2 -3 3 -9 2 -2 3 -9 2 -3 1 -2 2 -6 2 -2 2 -6 1 -2 2 -3 1 -2 1 -3 2 -2 1 -2 1 -3 1 -2 2 -2 1 -2 1 -3 1 -2 2 -2 2 -4 3 -3 3 -6 2 -1 1 -2 1 -1 1 -2 2 -1"/>
<path stroke="red" d="M505 112l1 -1 1 -2 1 -1 2 -1 2 -2 2 -1 2 -2 1 0 2 -1 1 0 1 -1 6 0 2 1 1 0 1 1 1 0 2 1 6 6 1 2 3 3 2 4 2 2 1 3 2 4 2 3 1 2 1 3 1 2 2 3 2 6 1 2 2 3 3 9 2 3 3 9 2 3 1 4 1 3 2 3 2 6 1 4 2 3 2 6 1 4 2 3 1 3 1 4 1 3 2 3 1 4 2 6"/>
<path stroke="red" d="M595 234l2 4 2 6 1 4 2 3 1 4 1 3 2 3 1 4 2 6 2 4 1 3 1 4 1 3 2 3 1 4 1 3 1 4 2 3 1 3 1 4 1 3 2 3 1 4 2 6 2 4 2 6 1 4 2 3 1 3 1 4 2 3 2 6 1 4 2 3 2 6 1 4 2 3 3 9 2 4 3 9 2 3 3 9 2 4 2 6 2 3 3 9 2 3 3 9 2 3 1 3 1 2 1 3 2 3"/>
<path stroke="red" d="M684 460l3 9 2 3 1 2 2 6 2 3 1 3 1 2 1 3 2 3 1 2 1 3 2 3 1 2 2 6 2 2 1 3 1 2 1 3 2 3 1 2 1 3 1 2 2 3 2 4 1 3 2 2 1 3 2 4 2 3 2 4 2 3 3 6 2 3 3 6 2 2 2 4 1 3 2 2 3 6 2 2 3 6 3 3 2 4 2 2 2 4 2 1 3 6 2 1 3 6 2 1 1 2 1 1 1 2"/>
<path stroke="red" d="M779 632l3 3 1 2 4 4 1 2 9 9 1 2 2 1 1 1 1 2 1 1 2 1 2 2 1 2 2 1 3 3 2 1 8 8 2 0 2 2 2 1 3 3 2 1 1 1 1 0 1 1 2 1 2 2 1 0 2 1 1 1 1 0 1 1 2 1 1 1 1 0 1 1 2 0 2 2 2 0 1 1 1 0 1 1 2 1 1 0 1 1 1 0 2 1 1 0 1 1 3 0 1 1 1 0 1 1"/>
<path stroke="red" d="M876 705l2 0 1 1 2 0 2 1 2 0 1 1 3 0 1 1 3 0 1 1 3 0 1 1 4 0 1 1 4 0 1 1 5 0 1 1 7 0 1 1 6 0 1 1 9 0 1 1 13 0"/>
</svg>
